<svg xmlns="http://www.w3.org/2000/svg" width="512" height="512" viewBox="0 0 512 512" version="1.1">
	<path d="M 44.492 35.250 C 44.191 36.487, 44.070 100.725, 44.223 178 L 44.500 318.500 70.742 318.767 L 96.985 319.033 97.242 256.767 L 97.500 194.500 164.250 194.243 L 231 193.986 231.038 254.743 C 231.059 288.159, 231.043 324.295, 231.003 335.044 C 230.930 354.229, 233.290 376.831, 235.957 382.500 C 236.475 383.600, 237.602 387.425, 238.463 391 C 239.323 394.575, 240.622 398.850, 241.350 400.500 C 246.144 411.372, 253.277 424.529, 257.869 430.970 C 264.801 440.692, 279.307 454.674, 289.629 461.583 C 297.479 466.836, 315.639 475.994, 318.234 476.006 C 318.930 476.010, 320.716 476.646, 322.201 477.422 C 323.687 478.197, 329.762 479.569, 335.701 480.471 C 341.641 481.374, 348.127 482.537, 350.116 483.056 C 354.669 484.245, 383.552 484.301, 385.816 483.126 C 386.742 482.645, 390.425 481.976, 394 481.640 C 402.338 480.855, 412.215 479.034, 413.500 478.045 C 414.050 477.622, 415.834 476.956, 417.465 476.565 C 421.591 475.576, 429.992 471.779, 439.520 466.598 C 443.301 464.543, 456 454.728, 456 453.863 C 456 453.388, 456.622 453, 457.381 453 C 458.636 453, 470 441.304, 470 440.013 C 470 439.026, 448.679 416.530, 446.564 415.285 C 441.967 412.580, 438.660 413.714, 429.916 420.990 C 419.107 429.986, 405.660 435.901, 391.300 437.977 C 377.923 439.911, 349.869 438.672, 346.500 435.998 C 345.950 435.561, 343.250 434.538, 340.500 433.724 C 329.489 430.466, 315.128 419.990, 306.155 408.672 C 299.567 400.362, 291.121 383.795, 289.498 376 C 289.097 374.075, 288.408 372.048, 287.966 371.495 C 286.655 369.856, 284.840 354.357, 284.482 341.737 C 283.764 316.450, 289.812 293.127, 301.492 276.148 C 303.421 273.343, 305 270.771, 305 270.432 C 305 269.162, 318.710 256.610, 324 253.036 C 340.133 242.138, 353.470 238.498, 377 238.572 C 393.630 238.625, 405.069 240.425, 411.845 244.057 C 413.839 245.126, 416.058 246, 416.776 246 C 417.494 246, 419.300 246.833, 420.790 247.851 C 434.805 257.424, 439.744 260, 444.085 260 C 449.677 260, 451.962 258.410, 456.713 251.214 C 458.788 248.071, 462.843 242.350, 465.724 238.500 C 468.604 234.650, 470.970 230.979, 470.981 230.343 C 471.009 228.656, 461.562 220.437, 453.683 215.294 C 447.654 211.358, 438.360 206.386, 432.500 203.962 C 431.400 203.507, 428.925 202.459, 427 201.632 C 405.943 192.586, 364.942 190.761, 337 197.627 C 331.225 199.046, 325.150 200.767, 323.500 201.453 C 321.850 202.139, 318.925 203.271, 317 203.968 C 312.631 205.551, 298.565 212.581, 295.093 214.917 C 293.667 215.876, 290.700 217.866, 288.500 219.339 L 284.500 222.017 284 127.759 L 283.500 33.500 257.500 33.500 L 231.500 33.500 231.242 95.257 L 230.985 157.014 164.242 156.757 L 97.500 156.500 97.242 94.750 L 96.985 33 71.011 33 L 45.038 33 44.492 35.250" stroke="none" fill="black" fill-rule="evenodd"/>
</svg>