<svg xmlns="http://www.w3.org/2000/svg" width="512" height="512" viewBox="0 0 512 512" version="1.1">
	<path d="M 95 203.500 L 95 315 115.490 315 L 135.981 315 136.240 266.250 L 136.500 217.500 187.941 217.241 C 216.233 217.098, 239.741 217.341, 240.180 217.780 C 240.619 218.219, 240.908 242.861, 240.823 272.539 C 240.737 302.218, 240.762 330.775, 240.878 336 C 241.411 360.069, 248.756 384.102, 261.049 402 C 266.443 409.853, 279.216 421.985, 288.210 427.797 C 304.698 438.453, 323.506 443.654, 346.500 443.918 C 378.407 444.283, 401.616 435.908, 421.281 416.933 L 428.325 410.135 425.033 406.317 C 417.257 397.302, 409.620 389.943, 407.485 389.407 C 404.724 388.714, 401.994 390.052, 395.987 395.041 C 385.376 403.854, 373.267 407.935, 355.500 408.685 C 335.969 409.510, 321.265 404.959, 308.124 394.024 C 297.416 385.112, 288.003 368.184, 284.478 351.500 C 282.204 340.734, 282.195 320.158, 284.461 309.563 C 289.406 286.439, 302.489 268.520, 321.321 259.080 C 332.737 253.358, 342.097 251.632, 358.488 252.228 C 374.419 252.807, 383.346 255.548, 395.654 263.639 C 407.297 271.293, 411.398 270.953, 417.529 261.825 C 419.127 259.446, 422.398 254.859, 424.798 251.632 L 429.163 245.763 425.831 242.306 C 417.853 234.026, 398.531 223.710, 384.103 220.026 C 360.538 214.010, 328.687 216.301, 306.626 225.600 C 298.495 229.028, 285.562 236.281, 284.491 238.015 C 284.156 238.557, 283.459 239, 282.941 239 C 282.362 239, 282 210.760, 282 165.500 L 282 92 261.500 92 L 241 92 241 140 L 241 188 188.500 188 L 136 188 136 140 L 136 92 115.500 92 L 95 92 95 203.500" stroke="none" fill="black" fill-rule="evenodd"/>
</svg>